<svg width="19" height="19" viewBox="0 0 19 19" fill="none" xmlns="http://www.w3.org/2000/svg">
<g clip-path="url(#clip0_33_161)">
<path opacity="0.3" fill-rule="evenodd" clip-rule="evenodd" d="M16.93 12.0698C15.8161 12.0704 14.7092 11.8949 13.6501 11.5498C13.4023 11.4633 13.1357 11.4457 12.8786 11.4985C12.6215 11.5514 12.3836 11.6729 12.19 11.8501L10.1201 13.4199C7.89182 12.3085 6.08713 10.5004 4.98004 8.27003L6.49005 6.25977C6.68591 6.0673 6.82423 5.82434 6.88959 5.55763C6.95494 5.29091 6.94474 5.01123 6.86005 4.75001C6.50769 3.68896 6.32869 2.578 6.33002 1.45997C6.32949 1.07026 6.17443 0.696471 5.89886 0.420907C5.6233 0.145343 5.24975 -0.00971627 4.86005 -0.0102454H1.48004C1.28634 -0.0109031 1.09443 0.0265875 0.915222 0.100106C0.736015 0.173625 0.573039 0.281963 0.435608 0.418466C0.298177 0.554968 0.188929 0.7173 0.114197 0.896005C0.0394649 1.07471 0.000716533 1.26627 6.10352e-05 1.45997C0.00350407 5.94903 1.78822 10.253 4.96246 13.4273C8.13671 16.6015 12.4409 18.3867 16.93 18.3901C17.3197 18.3896 17.6934 18.2346 17.9689 17.959C18.2445 17.6834 18.3996 17.3096 18.4001 16.9199V13.5498C18.4007 13.3561 18.3631 13.1641 18.2896 12.9849C18.2161 12.8057 18.108 12.6428 17.9715 12.5054C17.835 12.3679 17.6728 12.2588 17.4941 12.1841C17.3154 12.1094 17.1237 12.0705 16.93 12.0698ZM17.3801 16.9199C17.3803 16.9791 17.3688 17.0376 17.3463 17.0923C17.3237 17.147 17.2907 17.1969 17.2488 17.2388C17.207 17.2806 17.1573 17.3139 17.1026 17.3364C17.0479 17.359 16.9892 17.3704 16.93 17.3701C12.7116 17.3662 8.66723 15.6884 5.68439 12.7056C2.70154 9.72273 1.02405 5.67835 1.02008 1.45997C1.02192 1.33946 1.07126 1.22443 1.15741 1.14015C1.24356 1.05586 1.35952 1.00897 1.48004 1.00977H4.86005C4.91922 1.00951 4.97782 1.02094 5.03253 1.04347C5.08725 1.06599 5.13693 1.09928 5.17877 1.14112C5.22061 1.18296 5.25379 1.23289 5.27631 1.28761C5.29883 1.34232 5.31026 1.4008 5.31 1.45997C5.30647 2.68271 5.49898 3.89822 5.88007 5.06007C5.90764 5.15441 5.90713 5.25454 5.87872 5.34864C5.85032 5.44274 5.79521 5.52653 5.72003 5.58985L3.97003 7.91993C3.91064 7.99559 3.87429 8.08685 3.86542 8.18263C3.85655 8.27841 3.87549 8.37469 3.91998 8.45997C5.16801 11.098 7.29192 13.2217 9.92999 14.4697C10.0162 14.5153 10.1135 14.5359 10.2108 14.5288C10.308 14.5217 10.4013 14.4877 10.48 14.4302L12.86 12.6201C12.9196 12.5619 12.9938 12.5208 13.0748 12.5015C13.1558 12.4821 13.2406 12.4847 13.32 12.5098C14.4838 12.8982 15.7031 13.0942 16.93 13.0899C16.9899 13.0898 17.0493 13.1018 17.1046 13.125C17.1598 13.1482 17.2099 13.1823 17.2518 13.2251C17.2937 13.268 17.3267 13.3188 17.3487 13.3745C17.3707 13.4303 17.3814 13.4899 17.3801 13.5498V16.9199Z" fill="black"/>
</g>
<defs>
<clipPath id="clip0_33_161">
<rect width="18.4" height="18.38" fill="white"/>
</clipPath>
</defs>
</svg>
