<svg width="20" height="21" viewBox="0 0 20 21" fill="none" xmlns="http://www.w3.org/2000/svg">
<path d="M15.2055 13.859C14.5521 13.2135 13.7363 13.2135 13.0871 13.859C12.5918 14.3504 12.0965 14.8419 11.6096 15.3416C11.4764 15.4791 11.364 15.5082 11.2017 15.4166C10.8813 15.2417 10.54 15.1001 10.232 14.9085C8.79614 14.0048 7.59335 12.8428 6.5279 11.5351C5.99933 10.8854 5.52904 10.1899 5.20025 9.40693C5.13365 9.24868 5.14614 9.14456 5.27516 9.01545C5.77043 8.53651 6.25321 8.04508 6.74016 7.55364C7.41855 6.87063 7.41855 6.071 6.73599 5.38383C6.34894 4.99235 5.96188 4.60919 5.57482 4.21771C5.17527 3.8179 4.77989 3.41392 4.37619 3.01827C3.72276 2.38107 2.90703 2.38107 2.25777 3.02244C1.75834 3.51387 1.27972 4.0178 0.771964 4.50091C0.301667 4.94653 0.0644374 5.49211 0.0144944 6.12931C-0.0645821 7.16632 0.189295 8.14503 0.54722 9.09875C1.27972 11.0728 2.39511 12.8262 3.74774 14.4337C5.57482 16.6077 7.75566 18.3277 10.3069 19.5688C11.4556 20.1269 12.6459 20.5559 13.9403 20.6267C14.8309 20.6766 15.605 20.4517 16.2252 19.7562C16.6497 19.2815 17.1283 18.8483 17.5778 18.3944C18.2437 17.7197 18.2479 16.9034 17.5861 16.2371C16.7954 15.4416 16.0004 14.6503 15.2055 13.859Z" fill="url(#paint0_linear_8_117)"/>
<path d="M14.4104 10.5398L15.9462 10.2774C15.7048 8.86556 15.0389 7.58699 14.0275 6.5708C12.9579 5.50047 11.6053 4.82579 10.1153 4.61755L9.89893 6.16266C11.0518 6.32509 12.1006 6.84567 12.9288 7.67445C13.7112 8.45742 14.2231 9.44862 14.4104 10.5398Z" fill="url(#paint1_linear_8_117)"/>
<path d="M16.8119 3.85953C15.039 2.08536 12.7957 0.965055 10.3194 0.619385L10.103 2.16449C12.2422 2.46435 14.1816 3.43473 15.7132 4.96317C17.1657 6.41666 18.1188 8.25329 18.4642 10.2732L19.9999 10.0108C19.5962 7.67023 18.4933 5.54623 16.8119 3.85953Z" fill="url(#paint2_linear_8_117)"/>
<defs>
<linearGradient id="paint0_linear_8_117" x1="9.03992" y1="2.54089" x2="9.03992" y2="20.6333" gradientUnits="userSpaceOnUse">
<stop stop-color="#E4C697"/>
<stop offset="1" stop-color="#CEA86B"/>
</linearGradient>
<linearGradient id="paint1_linear_8_117" x1="12.9225" y1="4.61755" x2="12.9225" y2="10.5398" gradientUnits="userSpaceOnUse">
<stop stop-color="#E4C697"/>
<stop offset="1" stop-color="#CEA86B"/>
</linearGradient>
<linearGradient id="paint2_linear_8_117" x1="15.0515" y1="0.619385" x2="15.0515" y2="10.2732" gradientUnits="userSpaceOnUse">
<stop stop-color="#E4C697"/>
<stop offset="1" stop-color="#CEA86B"/>
</linearGradient>
</defs>
</svg>
