<svg width="136" height="83" viewBox="0 0 136 83" fill="none" xmlns="http://www.w3.org/2000/svg">
<path d="M63.163 8.65061L62.792 7.72197L63.163 8.65061ZM135.125 11.2426C135.665 11.1243 136.006 10.5911 135.888 10.0517L133.96 1.2605C133.842 0.721027 133.309 0.379588 132.77 0.497871C132.23 0.616153 131.889 1.14937 132.007 1.68884L133.72 9.50321L125.906 11.2166C125.366 11.3349 125.025 11.8681 125.143 12.4075C125.262 12.947 125.795 13.2884 126.334 13.1702L135.125 11.2426ZM1.39586 82.3565C2.33363 82.7038 2.33362 82.7038 2.33369 82.7036C2.33382 82.7033 2.33398 82.7028 2.33424 82.7021C2.33477 82.7007 2.33563 82.6984 2.33681 82.6952C2.33917 82.6889 2.34282 82.6791 2.34777 82.6659C2.35768 82.6395 2.37276 82.5995 2.39303 82.5461C2.43356 82.4394 2.4948 82.2796 2.57668 82.0698C2.74043 81.65 2.98673 81.0299 3.31503 80.2335C3.97166 78.6408 4.95613 76.3436 6.2641 73.5349C8.88069 67.9163 12.7887 60.2577 17.9527 52.0992C28.3022 35.7484 43.602 17.5417 63.5339 9.57926L62.792 7.72197C42.266 15.9217 26.6823 34.568 16.2628 51.0296C11.0422 59.2773 7.09426 67.0148 4.45106 72.6906C3.12915 75.5292 2.13275 77.8539 1.466 79.4712C1.1326 80.2799 0.881573 80.9119 0.713428 81.3429C0.629354 81.5584 0.565996 81.7237 0.52342 81.8358C0.502132 81.8918 0.486039 81.9345 0.475149 81.9636C0.469704 81.9781 0.46556 81.9892 0.462717 81.9968C0.461296 82.0006 0.4602 82.0036 0.45943 82.0057C0.459045 82.0067 0.458711 82.0076 0.458518 82.0081C0.458266 82.0088 0.458095 82.0093 1.39586 82.3565ZM63.5339 9.57926C84.6477 1.14468 102.385 1.55323 114.827 4.05234C121.051 5.30268 125.955 7.07747 129.296 8.53513C130.965 9.26387 132.244 9.91303 133.1 10.3771C133.529 10.6092 133.851 10.7949 134.064 10.9211C134.171 10.9842 134.25 11.0325 134.302 11.0642C134.327 11.08 134.346 11.0917 134.358 11.0991C134.364 11.1028 134.368 11.1054 134.37 11.1069C134.371 11.1076 134.372 11.1081 134.372 11.1083C134.373 11.1084 134.372 11.1083 134.373 11.1083C134.372 11.1082 134.372 11.108 134.911 10.2658C135.45 9.42369 135.45 9.42334 135.449 9.42291C135.449 9.42268 135.448 9.42218 135.447 9.42171C135.446 9.42076 135.444 9.41953 135.442 9.41803C135.437 9.41502 135.43 9.41089 135.422 9.40568C135.405 9.39526 135.382 9.38049 135.351 9.36158C135.29 9.32375 135.2 9.26936 135.083 9.20007C134.849 9.06148 134.504 8.86326 134.053 8.61872C133.151 8.12969 131.821 7.45522 130.095 6.70206C126.644 5.19591 121.604 3.37373 115.22 2.09151C102.446 -0.474531 84.3087 -0.873589 62.792 7.72197L63.5339 9.57926Z" fill="#A88650"/>
</svg>
